<svg xmlns="http://www.w3.org/2000/svg" viewBox="0 0 489 590" width="489" height="590"><defs><linearGradient id="grd1" gradientUnits="userSpaceOnUse" x1="255.689" y1="659.422" x2="255.689" y2="141.154"><stop offset="0" stop-color="#fbdde9"></stop><stop offset="1" stop-color="#ffeef5" stop-opacity="0"></stop></linearGradient></defs><style>tspan{white-space:pre}.svg-empty-cart-variant-5-shp0{opacity:.502;fill:url(#grd1)}.svg-empty-cart-variant-5-shp1{fill:#feecec}.svg-empty-cart-variant-5-shp2{fill:#771212}.svg-empty-cart-variant-5-shp3{fill:#f0dfdc}.svg-empty-cart-variant-5-shp4{fill:#d9b3b3}.svg-empty-cart-variant-5-shp5{fill:#d06060}.svg-empty-cart-variant-5-shp6{fill:#ffc4c0}.svg-empty-cart-variant-5-shp7{fill:#fff4f2}.svg-empty-cart-variant-5-shp8{fill:#ff9595}.svg-empty-cart-variant-5-shp9{opacity:.322;fill:#ffc4c0}.svg-empty-cart-variant-5-shp10{fill:#dcbdd8}.svg-empty-cart-variant-5-shp11{opacity:.471;fill:#6a4c5d}</style><path class="svg-empty-cart-variant-5-shp0" d="M49.64 495.81c70.97 85.82 120.22 93.72 212.26 94.18 134.17.65 206.51-55.7 216.77-178.08 42.6-236.15-60.31-337.7-60.31-337.7-53.37-49.04-104.78-111.35-283.92-46.12C29.95 66.14-59.17 364.38 49.64 495.81z"></path><path class="svg-empty-cart-variant-5-shp1" d="M237 504c-49.22 0-89-9.39-89-21s39.78-21 89-21 89 9.39 89 21-39.78 21-89 21z"></path><path fill-rule="evenodd" class="svg-empty-cart-variant-5-shp2" d="M245.29 336l62.81 33.47c1.36.76 2.58 1.67 3.49 3.04l36.26 46.1-74.65-14.76L245.29 336z"></path><path fill-rule="evenodd" class="svg-empty-cart-variant-5-shp3" d="M273.36 381.64L348 418.61l-47.49 19.47s3.64 4.11-5.01 10.19l4.1 38.95c.3 2.13-1.36 4.11-3.64 4.11l-78.13 1.82-17.3-73.02 28.68-31.95 44.15-6.54z"></path><path fill-rule="evenodd" class="svg-empty-cart-variant-5-shp4" d="M167.15 477.33c2.13-3.19 9.26-14 10.01-15.21l.16-.16 3.64-11.25v-.31l-2.13-50.96c-.15-4.26 1.67-8.22 4.86-10.95l60.84-51.88c.45-.31 1.06-.31 1.36.15l27.16 44.27c.15.3.15.91-.15 1.07l-28.52 24.34c-.46.3-.46 1.06 0 1.37l3.03 2.28c.46.3.46 1.22 0 1.52l-19.72 11.56c-.31.15-.46.31-.46.61l-9.25 68.31c0 .45-.61.91-1.07.76-5.46-1.22-33.52-7.61-49.45-14.15-.46-.31-.61-.91-.31-1.37z"></path><path class="svg-empty-cart-variant-5-shp5" d="M320.08 451.32c-.6 0-1.36 0-1.97-.16-8.65-.91-13.35-8.97-15.78-15.51-2.43-6.54-3.03-12.78-3.03-13.09v-.45c.15-7.46.15-15.22-.61-21-.76-6.54-2.12-8.52-2.88-9.12-.15-.16-.76-.61-2.28-.16-1.82.46-3.79-.76-4.24-2.58-.46-1.83.75-3.81 2.57-4.26 3.95-.92 6.68.3 8.35 1.52 5.46 4.41 6.37 15.36 6.07 35.44.6 6.09 4.09 21.15 12.59 22.06 4.7.46 9.1-1.82 11.53-6.08 1.97-3.35 5.31-12.93-6.07-29.06-1.06-1.52-.76-3.8.91-4.87 1.52-1.06 3.8-.76 4.86.92 9.71 13.69 11.98 27.08 6.37 36.66-3.49 6.24-9.71 9.74-16.39 9.74z"></path><path fill-rule="evenodd" class="svg-empty-cart-variant-5-shp2" d="M261.98 455.57c-.16-2.12-3.49-2.12-3.19 0 .3 3.05.3 5.94 0 8.98-.15 1.68-.15 5.33-1.97 6.39-1.82 1.22-3.49-3.35-3.95-4.56-.91-2.74-1.21-5.63-1.06-8.52.15-2.13-3.03-2.13-3.19 0-.3 3.65.31 7.45 1.67 10.95 1.22 2.74 3.34 6.39 6.83 5.48 2.88-.76 3.94-3.96 4.4-6.54.76-3.96.91-8.07.46-12.18zM279.57 458.77c0-2.13-3.33-2.13-3.18 0 0 2.28-.15 4.56-.76 6.85-.45 1.52-1.06 3.95-2.73 4.87-1.67.91-2.73-2.29-3.03-3.5-.46-1.98-.46-3.96.45-5.79.91-1.82-1.97-3.49-2.88-1.67-1.22 2.74-1.52 5.78-.61 8.83.76 2.58 2.58 5.78 5.61 5.62 2.89-.15 4.56-2.89 5.47-5.17 1.21-3.19 1.66-6.54 1.66-10.04zM255.6 491.48c-5 .3-10.16.76-15.32 1.06-.3 0-.46-.15-.61-.15-1.21.61-3.03-.3-2.27-1.82 2.12-4.26 6.22-7.15 10.92-7.46 4.25-.3 9.1 2.13 9.1 6.85 0 .91-.91 1.37-1.82 1.52zm-2.42-3.96c0 .31-.16.61-.31.76h.91c-.15-.3-.3-.45-.6-.76z"></path><path class="svg-empty-cart-variant-5-shp5" d="M272.6 344.06c-.91-.76-1.98-1.06-3.04-1.06-.3-.31-.76-.46-1.21-.61-3.34-1.07-5.31 2.28-6.22 4.87-.15.45-.15.91.15 1.22.15 1.97 1.82 3.8 3.79 4.1.91.15 1.82.15 2.73-.3.76.3 1.82-.15 2.13-1.07 0-.15.15-.3.15-.45.3.3.61.45.91.45.61.31 1.37-.15 1.67-.76 1.21-1.97.91-4.87-1.06-6.39zM299.6 360.04c-.6-1.52-1.97-2.44-3.64-2.59-1.67-.15-3.19.91-3.64 2.43-.61 1.83.45 3.5 1.67 4.57.15.15.3.3.45.3.31.76.91 1.52 1.82 1.68 1.37.3 2.74-.46 3.19-1.83.45-1.37.76-3.04.15-4.56z"></path><path class="z-2 svg-empty-cart-variant-5-shp6" d="M176.2 337.43c2.05 1.34 4 2.7 6.16 3.79-.52.19-1.09.33-1.41.49-1.13.5-2.2 1.04-3.3 1.61-2.06 1.05-4.13 2.21-6.32 2.94-1.27.44-1.2 1.94-.31 2.53 3.38 2.26 7.23 3.71 10.82 5.6 1.48.78 2.81-1.71 1.33-2.49-2.79-1.46-5.72-2.64-8.47-4.17 1.57-.74 3.09-1.58 4.6-2.34 1.12-.56 2.25-1.12 3.41-1.56 1.36-.54 2.79-.93 3.48-2.39.3-.66.18-1.56-.52-1.81-3-1.16-5.49-2.96-8.15-4.69-1.4-.9-2.71 1.57-1.32 2.49z"></path><path class="svg-empty-cart-variant-5-shp7" d="M217 314c-14.67 0-14.67 22 0 22s14.67-22 0-22zM171.5 253c-23.33 0-23.33 37 0 37s23.33-37 0-37z"></path><path fill-rule="evenodd" class="svg-empty-cart-variant-5-shp7" d="M375.97 176.97c.7 15.7-10.83 29.64-25.16 34.4-2.44 16.76-18.69 30.17-35.46 30.17-2.97 0-5.94-.53-8.73-1.24-6.47 10.58-18.52 17.82-30.93 17.82-13.1 0-23.93-6.88-30.22-17.29-6.46 10.76-18.52 18.17-31.1 18.17-20.09 0-34.94-16.58-35.81-36.16-.17-4.94.7-9.71 2.62-14.12-2.27.53-4.89.89-7.34.89-20.09 0-34.94-16.59-35.81-36.17-.87-19.58 17.12-36.16 35.81-36.16 11.18 0 20.62 5.12 27.08 13.05-.35-1.94-.52-3.88-.7-5.99-.87-19.59 17.12-36.17 35.82-36.17 11 0 20.26 4.94 26.72 12.53C268.53 108 281.98 99 295.78 99c20.09 0 34.94 16.58 35.82 36.16 0 2.47-.18 4.77-.53 7.06 3.15-.88 6.29-1.41 9.44-1.41 20.09 0 34.94 16.58 35.46 36.16zm-165.61-8.11c-.35-.53-.88-.89-1.23-1.42.18.89.18 1.59.35 2.3.35-.18.53-.53.88-.88z"></path><path class="z-1 svg-empty-cart-variant-5-shp6" d="M116.43 323.95c3.6-.57 7.11-1.01 10.58-1.96-.38.71-.87 1.42-1.06 1.89-.74 1.62-1.38 3.24-2.03 4.89-1.22 3.1-2.34 6.34-4.02 9.24-.96 1.68.61 3.2 2.19 2.97 5.98-.88 11.68-3.07 17.54-4.56 2.41-.6 1.38-4.51-1.04-3.91-4.53 1.15-8.94 2.73-13.51 3.78 1-2.29 1.84-4.65 2.74-6.91.67-1.69 1.35-3.38 2.18-4.96.97-1.89 2.16-3.67 1.45-5.9-.32-.98-1.35-1.82-2.38-1.42-4.47 1.69-9.01 2.2-13.67 2.94-2.45.4-1.42 4.28 1.03 3.91z"></path><path class="z-3 svg-empty-cart-variant-5-shp8" d="M167.99 373.3c-.21-1.8-1.37-2.58-3.07-2.9-1.97-.35-3.97-.59-5.96-.81-3.89-.43-7.8-.61-11.71-.59-2.59.03-2.62 4.06 0 4.03 3.05-.03 6.07.08 9.12.35 1.48.13 2.94.27 4.39.45.06 0 .11.03.16.03-3.31 2.07-6.44 4.43-9.57 6.71-2.05 1.51-4.1 3.01-6.15 4.51-.7.51-1.38 1-2.08 1.48-.21.13-.43.27-.65.43-.02.03-.08.05-.1.08-1.87.54-1.81 3.36.08 3.87 6.71 1.77 13.35 4.59 19.5 7.81 2.29 1.21 4.34-2.28 2.05-3.49-5.15-2.71-10.68-5.15-16.32-6.98 1.83-1.32 3.64-2.66 5.45-4 4.45-3.25 8.93-6.69 13.86-9.21.57-.32 1.08-1.13 1-1.77z"></path><g><path class="svg-empty-cart-variant-5-shp6" d="M295.33 212.74c-3.99 10.2-23.03 24.8-41.61 15.07-11.52-5.94-24.11-18.41-16.59-37.89 7.53-19.47 21.96-22.51 41.62-15.06 19.65 7.45 24.1 18.56 16.58 37.88z"></path><path class="svg-empty-cart-variant-5-shp9" d="M295.33 206.2c-3.99 10.19-23.03 24.8-41.61 15.06-11.52-5.78-24.27-18.41-16.74-37.88 7.52-19.47 21.96-22.52 41.61-15.06 19.81 7.45 24.26 18.41 16.74 37.88z"></path><path class="svg-empty-cart-variant-5-shp10" d="M233.91 193.88c1.38 2.58.46 4.11.46 4.11v.3c-1.69 3.96-2 6.54-.92 8.21 1.22 1.98 3.99 2.29 7.06 2.44 9.52.46 11.82 5.17 11.98 5.17v.15c2.61 3.96 5.37 6.09 8.44 6.24 3.84.15 6.3-2.89 6.3-2.89l.15-.15c.46-.91 1.08-1.37 2-1.67 1.84-.46 3.99.76 3.99.76 3.99 2.43 7.68 1.52 9.98 0 2.3-1.52 3.38-4.11 2.77-6.39-1.08-4.42-.93-5.18 8.75-8.52h.15c3.69-1.98 5.68-4.42 5.84-7.15.61-11.72-14.59-15.07-14.9-15.22l-2.3-5.17s-26.41-7.61-34.09-3.96c-2.46 1.07-9.37-1.21-6.91 10.05.31 1.36-1.54 2.28-2.76 2.88-.47.31-1.23.61-1.39.77-1.99.6-3.84 1.97-4.6 3.95-1.23 1.83-1.08 4.11 0 6.09z"></path><path class="svg-empty-cart-variant-5-shp5" d="M291.18 187.49c-3.99 10.19-23.03 24.8-41.61 15.06-11.52-5.93-24.11-18.41-16.74-37.88 7.53-19.48 21.96-22.52 41.77-15.07 19.65 7.46 24.11 18.41 16.58 37.89z"></path><path class="svg-empty-cart-variant-5-shp10" d="M229.15 183.53c3.22 2.28 2.91 4.41 2.91 4.41v.31c.46 5.63 1.69 8.67 3.84 9.89 2.61 1.52 5.99.15 9.52-1.37 11.37-5.02 16.74-1.07 16.74-1.07l.15.15c5.38 3.2 9.83 3.96 13.36 2.44 4.46-1.98 5.53-6.85 5.53-7.15v-.15c0-1.37.46-2.28 1.38-3.05 1.85-1.67 5.07-1.52 5.07-1.52 5.99.46 9.83-2.58 11.52-5.63 1.53-3.04 1.38-6.54-.62-8.97-3.84-4.57-4.14-5.48 5.07-14.76l.15-.15v-.16c3.08-4.41 3.84-8.36 2.46-11.56-6.29-13.69-25.8-8.82-26.26-8.97l-5.83-4.57s-34.86 6.54-41.62 15.06c-1.99 2.74-11.36 4.11-1.84 15.67 1.08 1.37-.46 3.5-1.53 4.87-.46.61-1.08 1.52-1.23 1.68-2 1.82-3.07 4.56-2.92 7.3.15 2.89 1.84 5.63 4.15 7.3z"></path><path class="svg-empty-cart-variant-5-shp5" d="M262.01 182.92c-1.84 5.02-11.21 12.02-20.27 7.31-5.53-2.89-11.67-8.98-7.99-18.41 3.69-9.44 10.6-10.96 20.27-7.31 9.68 3.65 11.52 8.98 7.99 18.41z"></path><path class="svg-empty-cart-variant-5-shp5" d="M286.27 182.77c-1.84 5.02-11.21 12.02-20.27 7.3-5.53-2.89-11.67-8.97-7.99-18.41 3.69-9.43 10.6-10.95 20.28-7.3 9.52 3.65 11.66 8.98 7.98 18.41z"></path><path class="svg-empty-cart-variant-5-shp6" d="M290.88 169.69c-4 10.19-23.04 24.8-41.62 15.06-11.36-5.94-24.11-18.56-16.58-37.88 7.52-19.48 21.96-22.52 41.77-15.22 19.8 7.3 23.95 18.56 16.43 38.04z"></path><path class="svg-empty-cart-variant-5-shp11" d="M255.25 142.91c-.61 0-1.07-.46-1.23-1.07-.15-.91-.46-1.82-.77-2.73l-.15-.16c-.15-.6.15-1.36.62-1.52.61-.15 1.38.16 1.53.61l.16.15c.46 1.07.76 2.13.92 3.35.15.61-.31 1.22-1.08 1.37.16 0 0 0 0 0zM277.67 142c-.31 0-.61-.16-.77-.31-.46-.45-.61-1.21-.15-1.67.15-.15.15-.3.15-.61 0-.15.16-.46.16-.61.15-.61.92-.91 1.53-.61.62.16.92.92.62 1.53 0 .15-.16.3-.16.45-.15.46-.3.91-.61 1.37 0 .3-.46.46-.77.46zM276.9 169.53c-.61 0-1.07-.45-1.23-1.06 0-.76-.15-1.83-.15-2.74 0-1.06-.15-2.28-.15-2.58-.16-.61.3-1.22.92-1.37.61-.16 1.23.3 1.38.91 0 .15.15.76.15 2.74 0 1.06.16 1.98.16 2.73.15.77-.31 1.37-1.08 1.37.16 0 .16 0 0 0zM256.94 179.12c-.61 0-1.07-.46-1.23-1.06-.15-.92-.46-1.83-.77-2.74v-.16c-.15-.6.16-1.37.62-1.52.61-.15 1.38.15 1.53.61l.16.15c.46 1.07.76 2.13.92 3.35.15.76-.46 1.37-1.23 1.37.15 0 0 0 0 0zM242.81 149.3c0-.61.46-1.06 1.08-1.06.92 0 1.84-.31 2.76-.61l.16-.16c.61-.15 1.22.16 1.53.77.15.6-.15 1.21-.77 1.52l-.15.15c-1.08.3-2.15.61-3.38.76-.61-.15-1.23-.61-1.23-1.37zM259.4 158.73c.3.46.3 1.07-.16 1.52-.61.61-1.07 1.53-1.69 2.29l-.15.15c-.31.61-1.07.76-1.69.46-.61-.31-.77-1.07-.46-1.68l.16-.15c.61-.91 1.07-1.98 1.99-2.74.61-.3 1.38-.3 2 .15-.16 0-.16 0 0 0zM262.93 148.84c-.31 0-.62-.15-.77-.3-.46-.46-.61-1.22-.15-1.67.15-.16.15-.31.15-.61 0-.16.15-.46.15-.61.16-.61.93-.91 1.54-.61.61.15.92.91.61 1.52 0 .15-.15.31-.15.46-.15.45-.31.91-.61 1.37 0 .3-.31.45-.77.45zM245.58 168.01c-.16.16-.31.46-.62.61-.61.31-1.38 0-1.53-.61 0-.15-.16-.3-.46-.45-.16-.15-.31-.31-.46-.46-.47-.46-.31-1.22.15-1.67.46-.46 1.23-.31 1.69.15.15.15.15.15.31.3.3.31.61.61.92 1.22.15.15.15.46 0 .91zM236.06 159.95c-.31 0-.62-.15-.77-.3-.46-.46-.62-1.22-.16-1.68.16-.15.16-.3.16-.61 0-.15.15-.45.15-.61.16-.6.92-.91 1.54-.6.61.15.92.91.61 1.52 0 .15-.15.3-.15.45-.16.46-.31.92-.62 1.37-.15.31-.46.46-.76.46zM279.51 150.82c0-.15.16-.3.31-.45.46-.16 1.07-.16 1.38.3.16.15.16.15.46.3.16.16.31.16.46.31.46.3.46.76.16 1.22-.31.3-.92.3-1.39.15-.15 0-.15-.15-.3-.15-.31-.16-.62-.46-.92-.77-.16-.45-.16-.76-.16-.91z" opacity=".471"></path></g></svg>